<svg width="39" height="36" viewBox="0 0 39 36" fill="none" xmlns="http://www.w3.org/2000/svg">
	<path class="contour" d="M12 6H9V9H12V6ZM15 6H12V9H15V6ZM9 9H6V12H9V9ZM9 12H6V15H9V12ZM9 15H6V18H9V15ZM18 6H15V9H18V6ZM12 18H9V21H12V18ZM15 21H12V24H15V21ZM18 24H15V27H18V24ZM27 6H30V9H27V6ZM24 6H27V9H24V6ZM30 9H33V12H30V9ZM30 12H33V15H30V12ZM30 15H33V18H30V15ZM21 6H24V9H21V6ZM27 18H30V21H27V18ZM24 21H27V24H24V21ZM21 24H24V27H21V24ZM21 27H18V30H21V27ZM21 9H18V12H21V9Z" fill="black"/>
	<path class="main-body" d="M12 9H9V12H12V9ZM15 12H12V15H15V12ZM18 9H15V12H18V9ZM12 15H9V18H12V15ZM15 15H12V18H15V15ZM15 18H12V21H15V18ZM18 12H15V15H18V12ZM18 21H15V24H18V21ZM18 18H15V21H18V18ZM27 9H30V12H27V9ZM24 9H27V12H24V9ZM27 12H30V15H27V12ZM24 12H27V15H24V12ZM21 9H24V12H21V9ZM27 15H30V18H27V15ZM24 15H27V18H24V15ZM24 18H27V21H24V18ZM21 12H24V15H21V12ZM21 21H24V24H21V21ZM21 18H24V21H21V18ZM21 21H18V24H21V21ZM21 24H18V27H21V24Z" fill="none"/>
	<path class="core" d="M18 15H15V18H18V15ZM21 15H24V18H21V15ZM21 15H18V18H21V15ZM21 12H18V15H21V12ZM21 18H18V21H21V18Z" fill="white"/>
	<path class="extra" d="M12 6H9V9H12V6Z" fill="none"/>
	<path class="extra" d="M9 6H6V9H9V6Z" fill="none"/>
	<path class="extra" d="M12 9H9V12H12V9Z" fill="none"/>
	<path class="extra" d="M15 12H12V15H15V12Z" fill="none"/>
	<path class="extra" d="M18 9H15V12H18V9Z" fill="none"/>
	<path class="extra" d="M15 6H12V9H15V6Z" fill="none"/>
	<path class="extra" d="M9 9H6V12H9V9Z" fill="none"/>
	<path class="extra" d="M9 12H6V15H9V12Z" fill="none"/>
	<path class="extra" d="M9 15H6V18H9V15Z" fill="none"/>
	<path class="extra" d="M6 9H3V12H6V9Z" fill="none"/>
	<path class="extra" d="M6 12H3V15H6V12Z" fill="none"/>
	<path class="extra" d="M6 15H3V18H6V15Z" fill="none"/>
	<path class="extra" d="M18 6H15V9H18V6Z" fill="none"/>
	<path class="extra" d="M12 15H9V18H12V15Z" fill="none"/>
	<path class="extra" d="M12 18H9V21H12V18Z" fill="none"/>
	<path class="extra" d="M15 15H12V18H15V15Z" fill="none"/>
	<path class="extra" d="M15 18H12V21H15V18Z" fill="none"/>
	<path class="extra" d="M15 21H12V24H15V21Z" fill="none"/>
	<path class="extra" d="M18 15H15V18H18V15Z" fill="none"/>
	<path class="extra" d="M18 12H15V15H18V12Z" fill="none"/>
	<path class="extra" d="M18 21H15V24H18V21Z" fill="none"/>
	<path class="extra" d="M18 18H15V21H18V18Z" fill="none"/>
	<path class="extra" d="M18 24H15V27H18V24Z" fill="none"/>
	<path class="extra" d="M27 6H30V9H27V6Z" fill="none"/>
	<path class="extra" d="M30 6H33V9H30V6Z" fill="none"/>
	<path class="extra" d="M27 9H30V12H27V9Z" fill="none"/>
	<path class="extra" d="M24 9H27V12H24V9Z" fill="none"/>
	<path class="extra" d="M27 12H30V15H27V12Z" fill="none"/>
	<path class="extra" d="M24 12H27V15H24V12Z" fill="none"/>
	<path class="extra" d="M21 9H24V12H21V9Z" fill="none"/>
	<path class="extra" d="M24 6H27V9H24V6Z" fill="none"/>
	<path class="extra" d="M30 9H33V12H30V9Z" fill="none"/>
	<path class="extra" d="M33 9H36V12H33V9Z" fill="none"/>
	<path class="extra" d="M33 12H36V15H33V12Z" fill="none"/>
	<path class="extra" d="M33 15H36V18H33V15Z" fill="none"/>
	<path class="extra" d="M30 12H33V15H30V12Z" fill="none"/>
	<path class="extra" d="M30 15H33V18H30V15Z" fill="none"/>
	<path class="extra" d="M21 6H24V9H21V6Z" fill="none"/>
	<path class="extra" d="M12 3H9V6H12V3Z" fill="none"/>
	<path class="extra" d="M15 3H12V6H15V3Z" fill="none"/>
	<path class="extra" d="M18 3H15V6H18V3Z" fill="none"/>
	<path class="extra" d="M27 3H30V6H27V3Z" fill="none"/>
	<path class="extra" d="M24 3H27V6H24V3Z" fill="none"/>
	<path class="extra" d="M21 3H24V6H21V3Z" fill="none"/>
	<path class="extra" d="M27 15H30V18H27V15Z" fill="none"/>
	<path class="extra" d="M27 18H30V21H27V18Z" fill="none"/>
	<path class="extra" d="M24 15H27V18H24V15Z" fill="none"/>
	<path class="extra" d="M24 18H27V21H24V18Z" fill="none"/>
	<path class="extra" d="M24 21H27V24H24V21Z" fill="none"/>
	<path class="extra" d="M21 15H24V18H21V15Z" fill="none"/>
	<path class="extra" d="M21 12H24V15H21V12Z" fill="none"/>
	<path class="extra" d="M21 21H24V24H21V21Z" fill="none"/>
	<path class="extra" d="M21 18H24V21H21V18Z" fill="none"/>
	<path class="extra" d="M21 24H24V27H21V24Z" fill="none"/>
	<path class="extra" d="M21 9H18V12H21V9Z" fill="none"/>
	<path class="extra" d="M21 6H18V9H21V6Z" fill="none"/>
	<path class="extra" d="M21 15H18V18H21V15Z" fill="none"/>
	<path class="extra" d="M21 12H18V15H21V12Z" fill="none"/>
	<path class="extra" d="M21 21H18V24H21V21Z" fill="none"/>
	<path class="extra" d="M21 18H18V21H21V18Z" fill="none"/>
	<path class="extra" d="M21 24H18V27H21V24Z" fill="none"/>
	<path class="extra" d="M21 27H18V30H21V27Z" fill="none"/>
	<path class="extra" d="M21 30H18V33H21V30Z" fill="none"/>
	<path class="extra" d="M30 18H33V21H30V18Z" fill="none"/>
	<path class="extra" d="M27 21H30V24H27V21Z" fill="none"/>
	<path class="extra" d="M24 24H27V27H24V24Z" fill="none"/>
	<path class="extra" d="M24 27H21V30H24V27Z" fill="none"/>
	<path class="extra" d="M9 18H6V21H9V18Z" fill="none"/>
	<path class="extra" d="M12 21H9V24H12V21Z" fill="none"/>
	<path class="extra" d="M15 24H12V27H15V24Z" fill="none"/>
	<path class="extra" d="M18 27H15V30H18V27Z" fill="none"/>
	<path class="sparks" d="M36 13H39V16H36V13ZM27 27H30V30H27V27ZM18 33H21V36H18V33ZM9 27H12V30H9V27ZM24 0H27V3H24V0ZM33 3H36V6H33V3ZM3 3H6V6H3V3ZM12 0H15V3H12V0ZM0 13H3V16H0V13Z" fill="none"/>
</svg>
